# xmcd CD database file
#
# Track frame offsets:
#	225
#	14226
#	29283
#	44209
#	59869
#	76122
#	92164
#	105421
#	123082
#	138676
#	158705
#
# Disc length: 2266 seconds
#
# Revision: 1
# Processed by: cddbd v1.5.2PL0 Copyright (c) Steve Scherf et al.
# Submitted via: CDex 1.70beta2
#
DISCID=9808d70b
DTITLE=The Road Hammers - The Road Hammers II
DYEAR=2009
DGENRE=Country
TTITLE0=Homegrown
TTITLE1=Gettin' Screwed
TTITLE2=I Don't Know When to Quit
TTITLE3=Cowboy 'Til I Die
TTITLE4=Workin' Hard At Lovin' You
TTITLE5=I've Got The Scars To Prove It
TTITLE6=Thank God I'm A Country Boy
TTITLE7=Freewheelin'
TTITLE8=No Time For Long Goodbyes
TTITLE9=Goodbye Dust
TTITLE10=A Girl Who Loves To Truck
EXTD=YEAR: 2009
EXTT0=
EXTT1=
EXTT2=
EXTT3=
EXTT4=
EXTT5=
EXTT6=
EXTT7=
EXTT8=
EXTT9=
EXTT10=
PLAYORDER=
